HIERARCHY
ROOT Hips
{
  OFFSET -125.086 92.215 135.881
  CHANNELS 6 Xposition Yposition Zposition Zrotation Xrotation Yrotation
  JOINT LeftUpLeg
  {
    OFFSET 8.64259 1.95398 -2.38835
    CHANNELS 3 Zrotation Xrotation Yrotation
    JOINT LeftLeg
    {
      OFFSET 43.7702 0 0
      CHANNELS 3 Zrotation Xrotation Yrotation
      JOINT LeftFoot
      {
        OFFSET 40.6238 0 0
        CHANNELS 3 Zrotation Xrotation Yrotation
        JOINT LeftToeBase
        {
          OFFSET 12.7242 0 0
          CHANNELS 3 Zrotation Xrotation Yrotation
          End Site
          {
            OFFSET 0 0 0
          }
        }
      }
    }
  }
  JOINT RightUpLeg
  {
    OFFSET -8.2249 1.95398 -2.59336
    CHANNELS 3 Zrotation Xrotation Yrotation
    JOINT RightLeg
    {
      OFFSET 43.5653 0 0
      CHANNELS 3 Zrotation Xrotation Yrotation
      JOINT RightFoot
      {
        OFFSET 40.6238 0 0
        CHANNELS 3 Zrotation Xrotation Yrotation
        JOINT RightToeBase
        {
          OFFSET 12.7242 0 0
          CHANNELS 3 Zrotation Xrotation Yrotation
          End Site
          {
            OFFSET 0 0 0
          }
        }
      }
    }
  }
  JOINT Spine
  {
    OFFSET 0.165834 0.87714 6.61349
    CHANNELS 3 Zrotation Xrotation Yrotation
    JOINT Spine1
    {
      OFFSET 7.38963 1.71661e-005 0
      CHANNELS 3 Zrotation Xrotation Yrotation
      JOINT Spine2
      {
        OFFSET 11.9445 1.14441e-005 0
        CHANNELS 3 Zrotation Xrotation Yrotation
        JOINT Spine3
        {
          OFFSET 14.7254 4.19617e-005 0
          CHANNELS 3 Zrotation Xrotation Yrotation
          JOINT Spine4
          {
            OFFSET 10.9679 0 0
            CHANNELS 3 Zrotation Xrotation Yrotation
            JOINT RightShoulder
            {
              OFFSET 2.46616 -1.6653 3.69651
              CHANNELS 3 Zrotation Xrotation Yrotation
              JOINT RightArm
              {
                OFFSET 13.0012 0 0
                CHANNELS 3 Zrotation Xrotation Yrotation
                JOINT RightForeArm
                {
                  OFFSET 28.7848 1.52588e-005 0
                  CHANNELS 3 Zrotation Xrotation Yrotation
                  JOINT RightHand
                  {
                    OFFSET 26.5688 1.52588e-005 0
                    CHANNELS 3 Zrotation Xrotation Yrotation
                    End Site
                    {
                      OFFSET 0 0 0
                    }
                  }
                }
              }
            }
            JOINT LeftShoulder
            {
              OFFSET 2.38034 -1.29275 -3.7523
              CHANNELS 3 Zrotation Xrotation Yrotation
              JOINT LeftArm
              {
                OFFSET 16.3182 6.10352e-005 0
                CHANNELS 3 Zrotation Xrotation Yrotation
                JOINT LeftForeArm
                {
                  OFFSET 27.0901 0 0
                  CHANNELS 3 Zrotation Xrotation Yrotation
                  JOINT LeftHand
                  {
                    OFFSET 24.5451 1.52588e-005 0
                    CHANNELS 3 Zrotation Xrotation Yrotation
                    End Site
                    {
                      OFFSET 0 0 0
                    }
                  }
                }
              }
            }
            JOINT Neck
            {
              OFFSET 5.0226 -0.0266342 0
              CHANNELS 3 Zrotation Xrotation Yrotation
              JOINT Head
              {
                OFFSET 6.69363 2.86102e-005 0
                CHANNELS 3 Zrotation Xrotation Yrotation
                End Site
                {
                  OFFSET 0 0 0
                }
              }
            }
          }
        }
      }
    }
  }
}
MOTION
Frames:	9
Frame Time:	0.0416667
47.6583 73.0674 -13.9074 -128.777 -53.2377 -136.402 176.875 26.9848 100.508 -49.4721 22.5865 9.23367 46.2933 -3.54953 -7.71603 68.6089 0.554036 16.7736 172.369 37.486 94.4811 -94.5407 -17.1808 -2.29751 61.2155 -5.10733 -3.75387 48.5662 -2.89729 2.28874 -0.0481214 10.6215 -88.7222 5.61927 0.436908 2.49997 -6.05396 0.546471 2.47833 -28.57 -0.334378 2.51573 -8.55731 -0.334394 2.51572 108.649 -50.7058 -72.1516 23.9798 -16.4159 -12.6299 0.973519 -3.79535 -51.5501 -15.4671 -0.41036 -2.15229 -79.9873 -41.328 93.2306 -15.4925 -10.6849 -26.6259 1.13239 19.131 -8.12832 3.90506 -0.450826 -10.9333 -4.6555 -14.3209 8.98011 -9.51017 -13.4004 -34.4825 
49.3563 71.0966 -4.55471 -115.076 -49.2316 -124.575 179.75 33.121 99.9466 -66.1206 19.6345 6.43196 57.2097 2.65154 4.67088 65.43 -0.0968412 14.6344 172.514 46.9187 92.29 -104.616 -15.5819 -3.23027 55.7353 -1.98122 -1.08376 46.3109 -1.93603 13.3125 0.0111472 10.7992 -88.5804 5.25948 0.610105 2.77318 -6.41423 0.731508 2.74367 -28.9256 -0.251208 2.82833 -8.91293 -0.251191 2.82833 107.884 -48.8955 -73.1274 22.3046 -22.4227 -16.7495 -14.7385 0.00476843 -89.1019 -16.5244 0.150759 -6.33388 -80.6857 -41.9679 92.0931 -18.3878 -11.2526 -34.1463 3.35917 16.0163 -8.32458 5.6819 -0.550329 -10.9132 2.63247 -13.8903 11.5282 -9.05311 -13.9264 -35.9913 
49.2618 71.4042 1.71379 -106.972 -51.6919 -118.965 -178.213 37.3319 97.7386 -70.9853 20.107 4.72093 62.4637 6.61778 7.08933 66.9125 0.232731 15.8281 160.822 56.4388 96.6196 -100.089 -15.6422 -1.42354 59.0192 -1.9038 6.14627 48.4807 -2.06001 12.2055 -0.369028 11.2254 -88.6335 4.4173 -0.181332 2.68047 -7.25639 -0.0632421 2.68585 -29.7718 -0.978298 2.50226 -9.75912 -0.9783 2.50227 108.145 -50.4791 -72.9005 22.4182 -23.7599 -19.6959 -20.7801 9.82649 -102.481 -19.6971 0.30357 -7.09456 -82.7527 -42.6834 88.7094 -24.3669 -8.15574 -53.9923 7.28219 16.9072 -9.04448 6.10367 -0.547862 -10.5124 12.5598 -13.2492 15.6722 -9.52776 -14.8945 -39.0116 
46.455 74.4985 6.8806 -100.774 -55.485 -116.536 -176.17 34.7651 93.8546 -65.3036 21.0132 3.45576 65.1208 8.66727 7.22803 67.1006 0.465348 16.8075 148.439 58.2924 101.564 -87.8508 -10.8417 2.63136 66.8427 -5.5961 4.77923 48.768 -2.01163 13.7973 -0.956591 11.4096 -88.6559 4.06228 -1.36844 2.63755 -7.61076 -1.25107 2.69518 -30.1365 -2.09771 2.10467 -10.1239 -2.0977 2.10467 109.933 -53.3553 -70.5586 20.5302 -26.8694 -18.8044 -24.3654 7.20649 -89.9464 -19.7781 0.0398263 -5.4026 -85.0917 -40.099 84.4182 -28.1837 -0.535192 -68.5373 9.69783 12.5963 -18.8823 5.24626 -0.48786 -10.3692 19.455 -12.791 19.3695 -12.1269 -15.4474 -40.693 
40.4433 78.1102 12.7724 -92.2462 -53.7135 -110.269 -174.562 27.3235 94.648 -56.6992 21.1348 3.20545 66.5398 8.4495 3.01413 69.1188 0.782573 17.578 148.818 55.422 102.323 -80.1762 -12.0245 4.90348 62.4908 -4.80753 -1.1991 51.374 -2.01413 14.6428 -1.31066 11.0243 -88.7586 4.84078 -2.10924 2.46618 -6.83097 -1.99868 2.55657 -29.3694 -2.75278 1.71833 -9.35678 -2.75278 1.71833 109.266 -54.1224 -71.6497 20.851 -29.8519 -13.7686 -19.0002 -4.21453 -77.1004 -26.6546 -0.724865 -2.07411 -84.7732 -37.8918 84.6231 -24.6544 2.32997 -71.8815 12.2795 16.6949 -36.0053 7.10881 -0.777384 -12.6383 20.2181 -11.1221 22.8236 -13.1251 -14.7053 -40.5562 
32.0593 80.4653 19.8522 -85.46 -46.1264 -104.461 -179.194 24.1429 96.5861 -60.6613 16.1532 5.94278 55.7114 0.63674 -8.67934 75.5907 1.70938 18.6692 158.542 45.7639 97.6771 -74.5985 -9.58734 4.86021 54.3047 1.47995 10.7013 32.4344 -1.07065 6.73434 -1.00686 10.4235 -89.1587 6.03809 -1.65746 1.70718 -5.63297 -1.58074 1.77845 -28.1724 -2.09388 1.13009 -8.15978 -2.09389 1.13007 107.642 -54.0202 -74.041 24.4332 -26.0811 -5.02692 -10.6846 -7.97632 -64.5894 -23.5162 -0.741266 -1.55996 -83.5725 -39.6425 86.9663 -23.3923 2.97411 -58.9645 12.8333 16.2882 -46.5934 2.91273 -0.500905 -13.2727 16.8925 -9.63457 20.1523 -10.5065 -13.2146 -33.3545 
22.5598 81.719 26.1034 -82.1855 -37.7543 -101.058 171.609 29.6538 95.5887 -80.142 10.0489 7.29651 52.589 1.92289 8.79895 60.5048 -0.304197 15.1677 164.403 32.0866 96.2416 -67.6205 -14.4847 6.04004 65.8538 -3.19925 8.76274 31.2701 -1.01888 9.1254 -0.570559 10.1863 -89.6834 6.50234 -1.0049 0.657733 -5.16845 -0.974988 0.701314 -27.7058 -1.15612 0.3253 -7.69313 -1.15611 0.325286 107.344 -54.2452 -74.5032 23.4556 -20.1663 -7.34102 -2.59563 -7.99564 -53.2915 -23.0735 -0.457441 -3.09741 -81.0449 -44.0561 91.6201 -23.2887 -0.28551 -41.8498 10.1638 23.4935 -32.8662 2.82958 -0.496669 -13.4222 20.4216 -7.41093 15.2715 -13.0413 -10.0339 -24.031 
14.2625 81.8367 32.0477 -77.358 -19.6812 -95.7808 172.413 44.5296 95.1791 -97.8719 4.65229 4.94876 60.7399 9.3729 15.5884 55.9642 -0.385511 15.7148 172.664 25.507 97.9294 -64.7855 -19.4591 2.18851 61.8407 -0.645294 12.5071 34.8624 -1.53106 13.6334 0.519795 10.084 -89.9521 6.70107 1.05852 0.0562464 -4.96956 1.05995 0.00959528 -27.5068 0.992667 0.371794 -7.49409 0.992662 0.371799 106.522 -52.0282 -75.5441 23.8348 -17.5059 -19.6941 -5.36019 -7.06006 -59.0252 -17.6367 -0.271828 -3.34968 -75.5035 -50.9233 100.373 -17.0795 -8.25893 -21.2815 2.97667 36.7047 -13.0182 5.81297 -0.538634 -10.6314 23.4525 -3.80261 15.1707 -12.4936 -7.44962 -18.6846 
3.50135 83.5316 37.0229 -72.6013 -8.38563 -99.7515 -174.328 60.1746 82.7872 -90.5329 18.7433 2.69476 62.4588 8.25876 12.2526 65.2036 0.328624 16.7508 176.393 14.2631 89.4978 -52.5084 -25.1204 -2.08184 67.1656 -2.97421 12.5674 30.2628 -1.77716 18.4587 1.01829 9.70075 -89.2921 7.45769 2.33999 1.28222 -4.21167 2.39415 1.17795 -26.7533 1.84648 1.92626 -6.74062 1.8465 1.92625 105.137 -45.5854 -77.2595 24.7813 -13.4892 -33.4508 -11.6254 -0.831539 -82.1756 -13.5455 0.137986 -6.55059 -76.3402 -48.338 99.2007 -16.9527 -10.0353 9.11267 0.874059 35.511 -11.8503 3.86747 -0.456839 -11.0825 22.3368 -3.48821 9.84956 -12.1739 -5.86678 -10.5946 
